<svg width="40" height="40" viewBox="0 0 40 40" fill="none" xmlns="http://www.w3.org/2000/svg">
<g clip-path="url(#clip0_1548_19190)">
<path d="M18.5835 5.6667L12.3835 15.8C11.7002 16.9 12.5002 18.3334 13.8002 18.3334H26.1835C27.4835 18.3334 28.2835 16.9 27.6002 15.8L21.4169 5.6667C20.7669 4.60003 19.2335 4.60003 18.5835 5.6667Z" fill="#fff"/>
<path d="M29.1665 36.6667C33.3086 36.6667 36.6665 33.3089 36.6665 29.1667C36.6665 25.0246 33.3086 21.6667 29.1665 21.6667C25.0244 21.6667 21.6665 25.0246 21.6665 29.1667C21.6665 33.3089 25.0244 36.6667 29.1665 36.6667Z" fill="#fff"/>
<path d="M6.66667 35.8333H16.6667C17.5833 35.8333 18.3333 35.0833 18.3333 34.1667V24.1667C18.3333 23.25 17.5833 22.5 16.6667 22.5H6.66667C5.75 22.5 5 23.25 5 24.1667V34.1667C5 35.0833 5.75 35.8333 6.66667 35.8333Z" fill="#fff"/>
</g>
<defs>
<clipPath id="clip0_1548_19190">
<rect width="40" height="40" fill="white"/>
</clipPath>
</defs>
</svg>
