<svg width="40" height="40" viewBox="0 0 40 40" fill="none" xmlns="http://www.w3.org/2000/svg">
<path fill-rule="evenodd" clip-rule="evenodd" d="M26.7275 2.13648C27.7396 1.74288 28.8809 2.22884 29.2986 3.23126L31.423 8.32998C31.4755 8.45583 31.5003 8.58628 31.5002 8.7146H34C35.1045 8.7146 36 9.61003 36 10.7146V15.7146C36 16.2669 35.5523 16.7146 35 16.7146C34.4477 16.7146 34 16.2669 34 15.7146V10.7146H15.3304C13.1175 10.7146 12.5431 7.65265 14.6055 6.85059L26.7275 2.13648ZM29.4166 8.7146L27.4524 4.00049L15.3304 8.7146H29.4166Z" fill="#4F4F4F"/>
<path d="M3 10.2144C3 6.34836 6.13401 3.21436 10 3.21436H14C14.5523 3.21436 15 3.66207 15 4.21436C15 4.76664 14.5523 5.21436 14 5.21436H10C7.23858 5.21436 5 7.45293 5 10.2144V30.7144C5 33.4758 7.23858 35.7144 10 35.7144H29C31.7614 35.7144 34 33.4758 34 30.7144V29.7144C34 29.1621 34.4477 28.7144 35 28.7144C35.5523 28.7144 36 29.1621 36 29.7144V30.7144C36 34.5803 32.866 37.7144 29 37.7144H10C6.13401 37.7144 3 34.5803 3 30.7144V10.2144Z" fill="#4F4F4F"/>
<path fill-rule="evenodd" clip-rule="evenodd" d="M24 22.7144C24 19.9529 26.2386 17.7144 29 17.7144H37.3333C37.7015 17.7144 38 18.0128 38 18.381V27.0477C38 27.4159 37.7015 27.7144 37.3333 27.7144H29C26.2386 27.7144 24 25.4758 24 22.7144ZM29 19.7144H36V25.7144H29C27.3431 25.7144 26 24.3712 26 22.7144C26 21.0575 27.3431 19.7144 29 19.7144Z" fill="#4F4F4F"/>
</svg>
