<svg width="40" height="40" viewBox="0 0 40 40" fill="none" xmlns="http://www.w3.org/2000/svg">
<path fill-rule="evenodd" clip-rule="evenodd" d="M12 7V8H5C2.79086 8 1 9.79086 1 12V34C1 36.2091 2.79086 38 5 38H35C37.2091 38 39 36.2091 39 34V12C39 9.79086 37.2091 8 35 8H28V7C28 4.23858 25.7614 2 23 2H17C14.2386 2 12 4.23858 12 7ZM17 4C15.3431 4 14 5.34315 14 7V8H26V7C26 5.34315 24.6569 4 23 4H17ZM30 10H25.1639C25.5113 10.4963 25.8307 11.0497 26.0621 11.6456C26.6036 13.0398 26.6617 14.6851 25.5427 16.2794L25.9413 19.4681C26.0066 19.9907 25.8631 20.518 25.542 20.9355L21.4056 26.3128C20.7296 27.1917 19.4677 27.3528 18.5925 26.6721L15.6712 24.4C14.8026 23.7244 14.6429 22.4741 15.3138 21.6019L19.4529 16.2211C19.7786 15.7977 20.2601 15.5222 20.7901 15.456L23.9533 15.0606C24.5743 14.1285 24.5333 13.2335 24.1978 12.3697C23.8528 11.4814 23.1976 10.6558 22.5778 10H10V36H30V10ZM32 36V10H35C36.1046 10 37 10.8954 37 12V34C37 35.1046 36.1046 36 35 36H32ZM8 36V10H5C3.89543 10 3 10.8954 3 12V34C3 35.1046 3.89543 36 5 36H8ZM21.0382 17.4405L23.6318 17.1163L23.9567 19.7161L19.8204 25.0934L16.8991 22.8213L21.0382 17.4405Z" fill="#4F4F4F"/>
</svg>
