<svg width="40" height="40" viewBox="0 0 40 40" fill="none" xmlns="http://www.w3.org/2000/svg">
<path fill-rule="evenodd" clip-rule="evenodd" d="M16.5988 8.25169C17.1247 7.9595 17.7542 7.9196 18.3128 8.14305L20.3714 8.96648C20.4051 8.97996 20.4377 8.99507 20.4691 9.01169L20.7595 8.72122C21.3909 8.0898 22.3644 7.95346 23.145 8.38712L31.2591 12.895H37C38.1046 12.895 39 13.7904 39 14.895V22.895C39 23.9995 38.1046 24.895 37 24.895H33C31.8954 24.895 31 23.9995 31 22.895V20.513L22.1975 16.1117L21.2929 17.0163C20.7303 17.5789 19.9672 17.895 19.1716 17.895H19C17.3431 17.895 16 16.5518 16 14.895V14.7234C16 13.9277 16.3161 13.1647 16.8787 12.6021L18.9348 10.5459L17.57 10L9.21216 14.6433C8.91504 14.8083 8.58076 14.895 8.24087 14.895H3V22.895H7.26448C7.34256 22.2526 7.62811 21.6307 8.12113 21.1377L10.2424 19.0163C11.414 17.8448 13.3135 17.8448 14.4851 19.0163C14.8681 19.3993 15.1259 19.8601 15.2585 20.3479C16.3369 19.9212 17.6128 20.144 18.4851 21.0163C18.8681 21.3993 19.1259 21.8601 19.2585 22.3479C20.3369 21.9212 21.6128 22.144 22.4851 23.0163C22.8681 23.3993 23.1259 23.8601 23.2585 24.3479C24.3369 23.9212 25.6128 24.144 26.4851 25.0163C27.6567 26.1879 27.6567 28.0874 26.4851 29.259L24.3638 31.3803C23.1922 32.5519 21.2927 32.5519 20.1211 31.3803C19.7381 30.9973 19.4803 30.5365 19.3477 30.0488C18.2693 30.4754 16.9934 30.2526 16.1211 29.3803C15.7381 28.9973 15.4803 28.5365 15.3477 28.0488C14.2693 28.4754 12.9934 28.2526 12.1211 27.3803C11.7381 26.9973 11.4803 26.5365 11.3477 26.0488C10.2693 26.4754 8.99344 26.2526 8.12113 25.3803C7.97037 25.2295 7.83901 25.0667 7.72704 24.895H3C1.89543 24.895 1 23.9995 1 22.895V14.895C1 13.7904 1.89543 12.895 3 12.895H8.24087L16.5988 8.25169ZM30.2878 14.6433L22.1737 10.1354L18.2929 14.0163C18.1054 14.2038 18 14.4582 18 14.7234V14.895C18 15.4472 18.4477 15.895 19 15.895H19.1716C19.4368 15.895 19.6911 15.7896 19.8787 15.6021L20.7832 14.6975C21.392 14.0888 22.3219 13.9379 23.0919 14.3229L31.8944 18.7241C32.572 19.0629 33 19.7554 33 20.513V22.895H37V14.895H31.2591C30.9192 14.895 30.585 14.8083 30.2878 14.6433ZM10.9496 23.9661L13.0709 21.8448C13.4614 21.4542 13.4614 20.8211 13.0709 20.4306C12.6804 20.04 12.0472 20.04 11.6567 20.4306L9.53534 22.5519C9.14482 22.9424 9.14482 23.5756 9.53534 23.9661C9.92587 24.3566 10.559 24.3566 10.9496 23.9661ZM17.0709 23.8448L14.9496 25.9661C14.559 26.3566 13.9259 26.3566 13.5353 25.9661C13.1448 25.5756 13.1448 24.9424 13.5353 24.5519L15.6567 22.4306C16.0472 22.04 16.6804 22.04 17.0709 22.4306C17.4614 22.8211 17.4614 23.4542 17.0709 23.8448ZM18.9496 27.9661L21.0709 25.8448C21.4614 25.4542 21.4614 24.8211 21.0709 24.4306C20.6804 24.04 20.0472 24.04 19.6567 24.4306L17.5353 26.5519C17.1448 26.9424 17.1448 27.5756 17.5353 27.9661C17.9259 28.3566 18.559 28.3566 18.9496 27.9661ZM25.0709 27.8448L22.9496 29.9661C22.559 30.3566 21.9259 30.3566 21.5353 29.9661C21.1448 29.5756 21.1448 28.9424 21.5353 28.5519L23.6567 26.4306C24.0472 26.04 24.6804 26.04 25.0709 26.4306C25.4614 26.8211 25.4614 27.4542 25.0709 27.8448Z" fill="#4F4F4F"/>
</svg>
