<svg width="40" height="40" viewBox="0 0 40 40" fill="none" xmlns="http://www.w3.org/2000/svg">
<path fill-rule="evenodd" clip-rule="evenodd" d="M18.6713 2.50518C19.4291 1.83161 20.571 1.83161 21.3287 2.50518L38.6644 17.9146C39.0772 18.2816 39.1143 18.9136 38.7474 19.3264C38.3805 19.7392 37.7484 19.7764 37.3356 19.4095L37 19.1111V32.6621C37 35.4235 34.7614 37.6621 32 37.6621H8C5.23858 37.6621 3 35.4235 3 32.6621V19.1111L2.66437 19.4095C2.25159 19.7764 1.61952 19.7392 1.2526 19.3264C0.885683 18.9136 0.922864 18.2816 1.33565 17.9146L18.6713 2.50518ZM16 35.6621H24V27.6621C24 26.0053 22.6569 24.6621 21 24.6621H19C17.3431 24.6621 16 26.0053 16 27.6621V35.6621ZM26 35.6621V27.6621C26 24.9007 23.7614 22.6621 21 22.6621H19C16.2386 22.6621 14 24.9007 14 27.6621V35.6621H8C6.34315 35.6621 5 34.319 5 32.6621V17.6621C5 17.561 4.985 17.4634 4.95711 17.3715L20 4L35.0429 17.3715C35.015 17.4634 35 17.561 35 17.6621V32.6621C35 34.319 33.6569 35.6621 32 35.6621H26Z" fill="#fff"/>
</svg>
