<svg width="40" height="40" viewBox="0 0 40 40" fill="none" xmlns="http://www.w3.org/2000/svg">
<path d="M20 23.5156C21.9415 23.5156 23.5156 21.9415 23.5156 20C23.5156 18.0585 21.9415 16.4844 20 16.4844C18.0585 16.4844 16.4844 18.0585 16.4844 20C16.4844 21.9415 18.0585 23.5156 20 23.5156Z" fill="#4F4F4F"/>
<path fill-rule="evenodd" clip-rule="evenodd" d="M14.0625 9.375H25.9375C28.5223 9.375 30.625 11.4777 30.625 14.0625V25.9375C30.625 28.5223 28.5223 30.625 25.9375 30.625H14.0625C11.4777 30.625 9.375 28.5223 9.375 25.9375V14.0625C9.375 11.4777 11.4777 9.375 14.0625 9.375ZM14.1406 20C14.1406 23.2309 16.7691 25.8594 20 25.8594C23.2309 25.8594 25.8594 23.2309 25.8594 20C25.8594 16.7691 23.2309 14.1406 20 14.1406C16.7691 14.1406 14.1406 16.7691 14.1406 20ZM25.5469 13.2812C25.5469 13.9285 26.0715 14.4531 26.7188 14.4531C27.366 14.4531 27.8906 13.9285 27.8906 13.2812C27.8906 12.634 27.366 12.1094 26.7188 12.1094C26.0715 12.1094 25.5469 12.634 25.5469 13.2812Z" fill="#4F4F4F"/>
<path fill-rule="evenodd" clip-rule="evenodd" d="M31.4286 0C36.1624 0 40 3.83756 40 8.57143V31.4286C40 36.1624 36.1624 40 31.4286 40H8.57143C3.83756 40 0 36.1624 0 31.4286V8.57143C0 3.83756 3.83756 0 8.57143 0H31.4286ZM32.9688 25.9375C32.9688 29.8145 29.8145 32.9688 25.9375 32.9688H14.0625C10.1855 32.9688 7.03125 29.8145 7.03125 25.9375V14.0625C7.03125 10.1855 10.1855 7.03125 14.0625 7.03125H25.9375C29.8145 7.03125 32.9688 10.1855 32.9688 14.0625V25.9375Z" fill="#4F4F4F"/>
</svg>
