<svg width="40" height="40" viewBox="0 0 40 40" fill="none" xmlns="http://www.w3.org/2000/svg">
<path fill-rule="evenodd" clip-rule="evenodd" d="M28 9C28 11.9621 26.3902 14.5482 23.9977 15.9311C23.9992 15.9539 24 15.9768 24 16V20C24 20.5523 23.5523 21 23 21H22.8293C22.9398 21.3128 23 21.6494 23 22C23 23.6569 21.6569 25 20 25C18.3431 25 17 23.6569 17 22C17 21.6494 17.0602 21.3128 17.1707 21H17C16.4477 21 16 20.5523 16 20V16C16 15.9768 16.0008 15.9539 16.0023 15.9311C13.6098 14.5482 12 11.9621 12 9C12 4.58172 15.5817 1 20 1C24.4183 1 28 4.58172 28 9ZM20 15C23.3137 15 26 12.3137 26 9C26 5.68629 23.3137 3 20 3C16.6863 3 14 5.68629 14 9C14 12.3137 16.6863 15 20 15ZM22 19V17H18V19H22ZM20 21C19.4477 21 19 21.4477 19 22C19 22.5523 19.4477 23 20 23C20.5523 23 21 22.5523 21 22C21 21.4477 20.5523 21 20 21Z" fill="#4F4F4F"/>
<path fill-rule="evenodd" clip-rule="evenodd" d="M3 31V29.1576C3 28.6789 3.33924 28.2674 3.80913 28.176L14.4199 26.1128C14.8057 26.0378 15.1981 25.9967 15.5893 26.0351C16.1444 26.0897 16.9681 26.2288 17.5 26.5833C18.2193 27.0629 18.5297 27.5377 19 28.3333C19.4191 29.0422 19.664 30.0818 19.8065 31H20.1935C20.336 30.0818 20.5809 29.0422 21 28.3333C21.4703 27.5377 21.7807 27.0629 22.5 26.5833C23.0319 26.2288 23.8556 26.0897 24.4107 26.0351C24.8019 25.9967 25.1943 26.0378 25.5801 26.1128L36.1909 28.176C36.6608 28.2674 37 28.6789 37 29.1576V31H38C38.5523 31 39 31.4477 39 32V35.1429C39 35.6951 38.5523 36.1429 38 36.1429H24.3205C24.112 36.1429 23.9088 36.208 23.7392 36.3291L22.325 37.3393C20.9342 38.3327 19.0658 38.3327 17.675 37.3393L16.2608 36.3291C16.0912 36.208 15.888 36.1429 15.6795 36.1429H2C1.44772 36.1429 1 35.6951 1 35.1429V32C1 31.4477 1.44772 31 2 31H3ZM17.6915 30.5652C17.7236 30.709 17.7527 30.8547 17.7788 31H5V29.9819L14.8017 28.076C15.081 28.0217 15.2649 28.0129 15.3937 28.0256C15.6105 28.0469 15.8507 28.0823 16.0659 28.1364C16.2849 28.1915 16.3797 28.2417 16.3898 28.247C16.3899 28.2471 16.39 28.2471 16.3898 28.247C16.716 28.4645 16.839 28.6078 17.2783 29.3511C17.411 29.5756 17.562 29.9866 17.6915 30.5652ZM35 31H22.2212C22.2473 30.8547 22.2764 30.709 22.3085 30.5652C22.438 29.9866 22.589 29.5756 22.7217 29.3511C23.161 28.6078 23.2831 28.4649 23.6094 28.2474C23.6092 28.2475 23.6093 28.2475 23.6094 28.2474C23.6194 28.2421 23.7151 28.1915 23.9342 28.1364C24.1493 28.0823 24.3895 28.0469 24.6063 28.0256C24.7351 28.0129 24.919 28.0217 25.1983 28.076L35 29.9819V31ZM37 33V34.1429H24.3205C23.6952 34.1429 23.0856 34.3382 22.5768 34.7017L21.1625 35.7119C20.4671 36.2086 19.5329 36.2086 18.8375 35.7119L17.4232 34.7017C16.9144 34.3382 16.3048 34.1429 15.6795 34.1429H3V33H37Z" fill="#4F4F4F"/>
</svg>
