<svg width="40" height="40" viewBox="0 0 40 40" fill="none" xmlns="http://www.w3.org/2000/svg">
<path fill-rule="evenodd" clip-rule="evenodd" d="M8.57143 0C3.83756 0 0 3.83756 0 8.57143V31.4286C0 36.1624 3.83756 40 8.57143 40H31.4286C36.1624 40 40 36.1624 40 31.4286V8.57143C40 3.83756 36.1624 0 31.4286 0H8.57143ZM7.61301 32.381H13.3228V15.873H7.61301V32.381ZM7.51784 10.4127C7.51784 12.0317 8.8184 13.3333 10.4362 13.3333C12.0222 13.3333 13.3228 12.0317 13.3545 10.4127C13.3545 8.79365 12.0539 7.49206 10.4362 7.49206C8.8184 7.49206 7.51784 8.79365 7.51784 10.4127ZM32.387 32.381V23.3333C32.387 18.8571 31.4671 15.8413 26.2331 15.8413C23.6955 15.8413 22.0777 16.8254 21.3799 18.0952H21.253V15.873H16.8121V32.381H21.5702V24.254C21.5702 22.0635 22.0143 19.9683 24.7106 19.9683C27.3434 19.9683 27.5971 22.4444 27.5971 24.381V32.381H32.387Z" fill="#4F4F4F"/>
</svg>
