<svg width="40" height="40" viewBox="0 0 40 40" fill="none" xmlns="http://www.w3.org/2000/svg">
<g clip-path="url(#clip0_1548_19189)">
<path d="M20.0002 3.33325C10.8002 3.33325 3.3335 10.7999 3.3335 19.9999C3.3335 29.1999 10.8002 36.6666 20.0002 36.6666C29.2002 36.6666 36.6668 29.1999 36.6668 19.9999C36.6668 10.7999 29.2002 3.33325 20.0002 3.33325ZM18.3335 33.2166C11.7502 32.3999 6.66683 26.7999 6.66683 19.9999C6.66683 18.9666 6.80016 17.9833 7.01683 17.0166L15.0002 24.9999V26.6666C15.0002 28.4999 16.5002 29.9999 18.3335 29.9999V33.2166ZM29.8335 28.9833C29.4002 27.6333 28.1668 26.6666 26.6668 26.6666H25.0002V21.6666C25.0002 20.7499 24.2502 19.9999 23.3335 19.9999H13.3335V16.6666H16.6668C17.5835 16.6666 18.3335 15.9166 18.3335 14.9999V11.6666H21.6668C23.5002 11.6666 25.0002 10.1666 25.0002 8.33325V7.64992C29.8835 9.63325 33.3335 14.4166 33.3335 19.9999C33.3335 23.4666 32.0002 26.6166 29.8335 28.9833Z" fill="#fff"/>
</g>
<defs>
<clipPath id="clip0_1548_19189">
<rect width="40" height="40" fill="white"/>
</clipPath>
</defs>
</svg>
