<svg width="20" height="20" viewBox="0 0 20 20" fill="none" xmlns="http://www.w3.org/2000/svg">
<path d="M7.5 19.1668H12.5C12.9583 19.1668 13.3333 18.7918 13.3333 18.3335C13.3333 17.8752 12.9583 17.5002 12.5 17.5002H7.5C7.04167 17.5002 6.66667 17.8752 6.66667 18.3335C6.66667 18.7918 7.04167 19.1668 7.5 19.1668ZM13.3333 0.841829L6.66667 0.833496C5.75 0.833496 5 1.5835 5 2.50016V14.1668C5 15.0835 5.75 15.8335 6.66667 15.8335H13.3333C14.25 15.8335 15 15.0835 15 14.1668V2.50016C15 1.5835 14.25 0.841829 13.3333 0.841829ZM13.3333 12.5002H6.66667V4.16683H13.3333V12.5002Z" fill="#767EBB"/>
</svg>
