<svg width="40" height="40" viewBox="0 0 40 40" fill="none" xmlns="http://www.w3.org/2000/svg">
<path fill-rule="evenodd" clip-rule="evenodd" d="M9 5.00024C9 3.34339 10.3431 2.00024 12 2.00024H28C29.6569 2.00024 31 3.34339 31 5.00024V35.0002C31 36.6571 29.6569 38.0002 28 38.0002H12C10.3431 38.0002 9 36.6571 9 35.0002V5.00024ZM12 4.00024C11.4477 4.00024 11 4.44796 11 5.00024V35.0002C11 35.5525 11.4477 36.0002 12 36.0002H28C28.5523 36.0002 29 35.5525 29 35.0002V5.00024C29 4.44796 28.5523 4.00024 28 4.00024H12Z" fill="#4F4F4F"/>
<path d="M22 33.0002C22 34.1048 21.1046 35.0002 20 35.0002C18.8954 35.0002 18 34.1048 18 33.0002C18 31.8957 18.8954 31.0002 20 31.0002C21.1046 31.0002 22 31.8957 22 33.0002Z" fill="#4F4F4F"/>
<path d="M17 6.00024C17 5.44796 17.4477 5.00024 18 5.00024H22C22.5523 5.00024 23 5.44796 23 6.00024C23 6.55253 22.5523 7.00024 22 7.00024H18C17.4477 7.00024 17 6.55253 17 6.00024Z" fill="#4F4F4F"/>
</svg>
