<svg width="40" height="40" viewBox="0 0 40 40" fill="none" xmlns="http://www.w3.org/2000/svg">
<path fill-rule="evenodd" clip-rule="evenodd" d="M8.57143 0C3.83756 0 0 3.83756 0 8.57143V31.4286C0 36.1624 3.83756 40 8.57143 40H31.4286C36.1624 40 40 36.1624 40 31.4286V8.57143C40 3.83756 36.1624 0 31.4286 0H8.57143ZM8.57143 24.5679H14.1919L18.4692 17.5042L15.3237 11.6269H9.70552L12.8532 17.5042L11.5601 19.6429L8.57143 24.5679ZM23.3782 32.1429H29.2873L23.5737 22.4542L25.1646 19.6429L32.276 7.14286H26.3555L19.2351 19.6429L17.6442 22.4542L23.3782 32.1429Z" fill="#4F4F4F"/>
</svg>
