<svg width="40" height="40" viewBox="0 0 40 40" fill="none" xmlns="http://www.w3.org/2000/svg">
<path d="M28.1817 16.6451C28.5722 16.2546 28.5722 15.6214 28.1817 15.2309C27.7912 14.8404 27.158 14.8404 26.7675 15.2309L18.9746 23.0238L15.6817 19.7309C15.2912 19.3404 14.658 19.3404 14.2675 19.7309C13.877 20.1214 13.877 20.7546 14.2675 21.1451L17.5604 24.438C18.3414 25.219 19.6078 25.219 20.3888 24.438L28.1817 16.6451Z" fill="#4F4F4F"/>
<path fill-rule="evenodd" clip-rule="evenodd" d="M21.0296 2.11652C20.5946 1.96116 20.1192 1.96116 19.6842 2.11652L6.58195 6.7959C5.89535 7.04111 5.38069 7.64739 5.28117 8.39522C4.39748 15.0352 5.6428 22.3344 8.37033 27.9998C11.0738 33.6153 15.4093 37.9381 20.8571 37.9381C26.4394 37.9381 30.5327 33.5918 32.9619 27.9621C35.4091 22.2904 36.3316 15.0024 35.4331 8.3922C35.3318 7.64705 34.8189 7.04126 34.1318 6.7959L21.0296 2.11652ZM10.1724 27.1322C7.61462 21.8195 6.43429 14.9213 7.26131 8.67699L20.3569 4L33.4534 8.67733C34.3033 14.952 33.4155 21.8626 31.1255 27.1697C28.8155 32.5234 25.2402 35.9381 20.8571 35.9381C16.5711 35.9381 12.7566 32.5 10.1724 27.1322Z" fill="#4F4F4F"/>
</svg>
