<svg width="40" height="40" viewBox="0 0 40 40" fill="none" xmlns="http://www.w3.org/2000/svg">
<path fill-rule="evenodd" clip-rule="evenodd" d="M3 7C3 5.34315 4.34315 4 6 4H34C35.6569 4 37 5.34315 37 7V27C37 28.6569 35.6569 30 34 30H6C4.34315 30 3 28.6569 3 27V7ZM6 6C5.44771 6 5 6.44772 5 7V27C5 27.5523 5.44772 28 6 28H34C34.5523 28 35 27.5523 35 27V7C35 6.44772 34.5523 6 34 6H6Z" fill="#4F4F4F"/>
<path fill-rule="evenodd" clip-rule="evenodd" d="M25 34V30H27V34H25Z" fill="#4F4F4F"/>
<path fill-rule="evenodd" clip-rule="evenodd" d="M14 34V30H16V34H14Z" fill="#4F4F4F"/>
<path fill-rule="evenodd" clip-rule="evenodd" d="M34 35C34 35.5523 33.5523 36 33 36H7C6.44772 36 6 35.5523 6 35C6 34.4477 6.44772 34 7 34H33C33.5523 34 34 34.4477 34 35Z" fill="#4F4F4F"/>
</svg>
