<svg width="40" height="40" viewBox="0 0 40 40" fill="none" xmlns="http://www.w3.org/2000/svg">
<path fill-rule="evenodd" clip-rule="evenodd" d="M5 5.99976C5 4.3429 6.34315 2.99976 8 2.99976H32C33.6569 2.99976 35 4.3429 35 5.99976V33.9998C35 35.6566 33.6569 36.9998 32 36.9998H8C6.34315 36.9998 5 35.6566 5 33.9998V5.99976ZM8 4.99976C7.44772 4.99976 7 5.44747 7 5.99976V33.9998C7 34.552 7.44772 34.9998 8 34.9998H32C32.5523 34.9998 33 34.552 33 33.9998V5.99976C33 5.44747 32.5523 4.99976 32 4.99976H8Z" fill="#4F4F4F"/>
<path d="M17 33.1763C17 32.6565 17.4214 32.2351 17.9412 32.2351H22.0588C22.5786 32.2351 23 32.6565 23 33.1763C23 33.6961 22.5786 34.1174 22.0588 34.1174H17.9412C17.4214 34.1174 17 33.6961 17 33.1763Z" fill="#4F4F4F"/>
</svg>
