<svg width="40" height="40" viewBox="0 0 40 40" fill="none" xmlns="http://www.w3.org/2000/svg">
<g clip-path="url(#clip0_1548_19191)">
<path d="M23.3335 1.66675H16.6668C15.7502 1.66675 15.0002 2.41675 15.0002 3.33341C15.0002 4.25008 15.7502 5.00008 16.6668 5.00008H23.3335C24.2502 5.00008 25.0002 4.25008 25.0002 3.33341C25.0002 2.41675 24.2502 1.66675 23.3335 1.66675ZM20.0002 23.3334C20.9168 23.3334 21.6668 22.5834 21.6668 21.6667V15.0001C21.6668 14.0834 20.9168 13.3334 20.0002 13.3334C19.0835 13.3334 18.3335 14.0834 18.3335 15.0001V21.6667C18.3335 22.5834 19.0835 23.3334 20.0002 23.3334ZM31.7168 12.3167L32.9668 11.0667C33.6002 10.4334 33.6168 9.38341 32.9668 8.73341L32.9502 8.71675C32.3002 8.06675 31.2668 8.08341 30.6168 8.71675L29.3668 9.96675C26.7835 7.90008 23.5335 6.66675 20.0002 6.66675C12.0002 6.66675 5.20017 13.2667 5.00017 21.2667C4.7835 29.7334 11.5668 36.6667 20.0002 36.6667C28.3002 36.6667 35.0002 29.9501 35.0002 21.6667C35.0002 18.1334 33.7668 14.8834 31.7168 12.3167ZM20.0002 33.3334C13.5502 33.3334 8.3335 28.1167 8.3335 21.6667C8.3335 15.2167 13.5502 10.0001 20.0002 10.0001C26.4502 10.0001 31.6668 15.2167 31.6668 21.6667C31.6668 28.1167 26.4502 33.3334 20.0002 33.3334Z" fill="#fff"/>
</g>
<defs>
<clipPath id="clip0_1548_19191">
<rect width="40" height="40" fill="white"/>
</clipPath>
</defs>
</svg>
