<svg width="86" height="40" viewBox="0 0 86 40" fill="none" xmlns="http://www.w3.org/2000/svg">
<g clip-path="url(#clip0_2644_1341)">
<path fill-rule="evenodd" clip-rule="evenodd" d="M11.2 20.4802C11.2 21.5202 10.56 22.4002 9.2 22.4002H3.04V18.6402H9.12C10.56 18.5602 11.2 19.4402 11.2 20.4802ZM14.16 20.6402C14.16 18.5602 12.96 17.6002 12.08 17.2002C12.88 16.8002 14 15.7602 14 14.0002C14 11.3602 12.24 9.68018 9.2 9.68018H0V25.1202H9.44C12.24 25.0402 14.16 23.5202 14.16 20.6402ZM10.96 14.0802C10.96 15.1202 10.24 15.8402 8.96 15.8402H3.04V12.3202H8.96C10.24 12.3202 10.96 13.0402 10.96 14.0802Z" fill="#1D1D1B"/>
<path fill-rule="evenodd" clip-rule="evenodd" d="M26.08 23.5201C27.12 24.5601 28.64 25.2001 30.32 25.2001C33.52 25.2001 36 23.0401 36 19.7601V9.6001H33.04V19.6801C33.04 21.4401 32 22.4801 30.32 22.4801C28.72 22.4801 27.68 21.5201 27.68 19.7601V9.6001H24.72V19.6801C24.72 21.4401 23.68 22.4801 22 22.4801C20.4 22.4801 19.36 21.4401 19.36 19.6801V9.6001H16.32V19.7601C16.32 23.0401 18.88 25.2001 22 25.2001C23.6 25.2001 25.04 24.4801 26.08 23.5201Z" fill="#1D1D1B"/>
<path d="M41.6 9.6001H38.56V25.0401H41.6V9.6001Z" fill="#1D1D1B"/>
<path d="M59.04 0.8C60.24 0.8 61.28 1.84 61.28 3.12V3.2C61.28 4.48 60.32 5.52 59.04 5.52H26C24.8 5.52 23.76 4.48 23.76 3.2V3.12C23.84 1.84 24.8 0.8 26 0.8H59.04ZM59.04 0H26C24.4 0 22.96 1.36 22.96 3.12V3.2C22.96 4.96 24.32 6.32 26 6.32H59.04C60.72 6.32 62.08 4.96 62.08 3.2V3.12C62 1.36 60.72 0 59.04 0Z" fill="#1D1D1B"/>
<path fill-rule="evenodd" clip-rule="evenodd" d="M63.84 3.12C63.84 1.36 65.2 0 66.88 0H70.88C72.56 0 73.92 1.36 73.92 3.12V3.2C73.92 4.96 72.56 6.32 70.88 6.32H66.88C65.2 6.32 63.84 4.96 63.84 3.2V3.12Z" fill="#1D1D1B"/>
<path fill-rule="evenodd" clip-rule="evenodd" d="M75.52 3.12C75.52 1.36 76.88 0 78.56 0H82.56C84.24 0 85.6 1.36 85.6 3.12V3.2C85.6 4.96 84.24 6.32 82.56 6.32H78.56C76.88 6.32 75.52 4.96 75.52 3.2V3.12Z" fill="#1D1D1B"/>
<path d="M84.56 38.7199C84.4 38.8799 84.08 38.8799 83.68 38.8799C82.4 38.8799 81.92 37.7599 81.92 36.3199C81.92 34.9599 82.4 33.6799 83.84 33.6799C84.08 33.6799 84.4 33.7599 84.64 33.7599V38.7199H84.56ZM85.6 39.1199V30.3199H84.56V33.2799C84.24 33.1999 83.92 33.1199 83.6 33.1199C82 33.1199 80.88 34.3199 80.88 36.3999C80.88 38.3199 81.84 39.5199 83.68 39.5199C84.48 39.5999 85.2 39.3599 85.6 39.1199ZM79.44 39.4399V34.8799C79.44 33.9999 78.96 33.0399 77.2 33.0399C76.16 33.0399 75.44 33.1999 74.88 33.5199V39.4399H75.92V33.9199C76.24 33.7599 76.56 33.6799 77.12 33.6799C78.16 33.6799 78.4 34.3199 78.4 34.8799V39.3599H79.44V39.4399ZM72.32 38.7199C72.08 38.8799 71.68 38.9599 71.28 38.9599C70.32 38.9599 69.76 38.5599 69.76 37.6799C69.76 36.3999 70.72 36.0799 72.32 35.8399V38.7199ZM73.28 39.1199V35.1199C73.28 33.5999 72.24 33.1199 71.12 33.1199C70.24 33.1199 69.52 33.3599 69.2 33.5999L69.44 34.2399C69.76 34.0799 70.32 33.8399 70.96 33.8399C71.76 33.8399 72.32 34.0799 72.32 35.1199V35.5199C70.4 35.6799 68.8 36.2399 68.8 37.8399C68.8 38.9599 69.52 39.6799 71.2 39.6799C72 39.5999 72.8 39.3599 73.28 39.1199ZM67.36 30.3199H66.32V39.4399H67.36V30.3199ZM64.64 39.4399V34.9599C64.64 34.0799 64.16 33.1199 62.56 33.1199C62.08 33.1199 61.6 33.1999 61.12 33.5199V30.3199H60.08V39.4399H61.12V34.0799C61.52 33.8399 61.84 33.7599 62.32 33.7599C63.36 33.7599 63.6 34.3199 63.6 34.9599V39.4399H64.64ZM58.8 39.1199L58.56 38.4799C58.32 38.6399 58 38.7999 57.6 38.7999C56.56 38.7999 56.08 37.7599 56.08 36.2399C56.08 34.7999 56.56 33.7599 57.68 33.7599C58.16 33.7599 58.4 33.9199 58.64 34.0799L58.88 33.5199C58.72 33.3599 58.24 33.1199 57.52 33.1199C56.16 33.1199 55.12 34.3199 55.12 36.3999C55.12 38.3999 56.16 39.6799 57.52 39.6799C58.08 39.5999 58.56 39.3599 58.8 39.1199ZM53.92 37.6799C53.92 36.9599 53.6 36.3199 52.4 35.8399C51.76 35.5999 51.36 35.2799 51.36 34.7199C51.36 34.1599 51.76 33.7599 52.4 33.7599C52.88 33.7599 53.28 33.9999 53.44 34.0799L53.68 33.4399C53.36 33.1999 52.88 33.0399 52.24 33.0399C51.12 33.0399 50.4 33.8399 50.4 34.7999C50.4 35.4399 50.64 36.0799 51.84 36.5599C52.56 36.7999 52.88 37.1199 52.88 37.7599C52.88 38.3999 52.4 38.8799 51.68 38.8799C51.12 38.8799 50.64 38.7199 50.48 38.4799L50.24 39.1199C50.56 39.3599 51.2 39.5199 51.84 39.5199C53.04 39.5199 53.92 38.6399 53.92 37.6799ZM49.28 39.4399V38.7999C49.2 38.7999 49.12 38.8799 48.96 38.8799C48.4 38.8799 48.16 38.4799 48.16 37.9999V33.9199H49.28V33.2799H48.16V31.5199L47.12 31.8399V33.2799H46.4V33.9199H47.12V37.9999C47.12 38.7999 47.52 39.5999 48.72 39.5999C48.96 39.5199 49.2 39.4399 49.28 39.4399ZM45.12 39.0399V33.1199H44.08V38.5599C43.76 38.7199 43.44 38.7999 42.96 38.7999C42.08 38.7999 41.68 38.2399 41.68 37.5199V33.1199H40.64V37.4399C40.64 38.7199 41.28 39.5199 42.88 39.5199C43.92 39.5999 44.72 39.3599 45.12 39.0399ZM38.32 35.6799L35.28 36.1599C35.28 34.4799 35.92 33.7599 36.88 33.7599C37.76 33.6799 38.32 34.2399 38.32 35.6799ZM39.28 36.1599C39.28 34.0799 38.4 33.1199 36.88 33.1199C35.44 33.1199 34.32 34.2399 34.32 36.3199C34.32 38.5599 35.44 39.5999 37.12 39.5999C38 39.5999 38.64 39.4399 39.04 39.1999L38.8 38.5599C38.48 38.7199 38 38.9599 37.28 38.9599C36.16 38.9599 35.52 38.2399 35.36 36.7999L39.28 36.1599ZM32.08 35.3599C32.08 37.5999 31.44 38.7999 29.84 38.7999C29.44 38.7999 29.04 38.7199 28.8 38.6399V32.1599C29.04 32.0799 29.36 31.9999 29.76 31.9999C31.36 31.9999 32.08 33.1199 32.08 35.3599ZM33.2 35.3599C33.2 32.8799 32.08 31.2799 29.84 31.2799C28.96 31.2799 28.24 31.4399 27.76 31.7599V39.1199C28.16 39.3599 28.96 39.5199 29.92 39.5199C32.16 39.5999 33.2 37.8399 33.2 35.3599ZM23.44 33.0399C21.92 33.0399 21.36 33.1999 20.72 33.5199V39.4399H21.76V33.9199C22.08 33.6799 22.72 33.6799 23.2 33.8399L23.44 33.0399ZM19.04 39.0399V33.1199H18V38.5599C17.68 38.7199 17.36 38.7999 16.88 38.7999C16 38.7999 15.6 38.2399 15.6 37.5199V33.1199H14.56V37.4399C14.56 38.7199 15.2 39.5199 16.8 39.5199C17.84 39.5999 18.64 39.3599 19.04 39.0399ZM16.4 31.7599C16.4 31.5199 16.16 31.2799 15.84 31.2799C15.52 31.2799 15.28 31.5199 15.28 31.7599C15.28 31.9999 15.52 32.2399 15.84 32.2399C16.16 32.2399 16.4 32.0799 16.4 31.7599ZM18.32 31.7599C18.32 31.5199 18.08 31.2799 17.76 31.2799C17.44 31.2799 17.2 31.5199 17.2 31.7599C17.2 31.9999 17.44 32.2399 17.76 32.2399C18.08 32.2399 18.32 32.0799 18.32 31.7599ZM13.52 33.8399V33.1999H12.4V32.1599C12.4 31.2799 12.88 30.9599 13.52 30.9599V30.3199C12.16 30.2399 11.36 31.0399 11.36 32.3199V33.1999H10.64V33.8399H11.36V39.5199H12.4V33.8399H13.52ZM6.64 32.1599V31.4399H2.4V32.1599H4V39.4399H5.04V32.1599H6.64ZM1.04 31.4399H0V39.4399H1.04V31.4399Z" fill="#1D1D1B"/>
</g>
<defs>
<clipPath id="clip0_2644_1341">
<rect width="85.6" height="40" fill="white"/>
</clipPath>
</defs>
</svg>
