<svg width="121" height="40" viewBox="0 0 121 40" fill="none" xmlns="http://www.w3.org/2000/svg">
<g clip-path="url(#clip0_2644_1279)">
<mask id="mask0_2644_1279" style="mask-type:luminance" maskUnits="userSpaceOnUse" x="0" y="2" width="192" height="16">
<path d="M0 18H191.008V2H0V18Z" fill="white"/>
</mask>
<g mask="url(#mask0_2644_1279)">
<path d="M33.7227 16.8855H35.87V3.11516H33.7227V16.8855Z" fill="white"/>
<path d="M64.9352 3.11516V16.8855H72.917L73.049 15.0481H67.1238V3.11516H64.9352Z" fill="white"/>
<path d="M81.0394 8.83387V4.95279H87.0678L86.9361 3.11516H78.9128V16.8855H87.1013L87.2331 15.0481H81.0394V10.6715H84.795V8.83387H81.0394Z" fill="white"/>
<path d="M20.7733 3.11542L16.0668 16.8855H18.2565L19.2895 13.6629H24.3091L25.3212 16.8855H27.5319L22.839 3.11542H20.7733ZM23.7515 11.8245H19.8473L21.7893 5.62752L23.7515 11.8245Z" fill="white"/>
<path d="M44.0384 3.11832L43.2252 16.8823H45.1853L45.8622 6.01775L49.9299 16.8823H51.0236L55.112 6.01775L55.7883 16.8823H57.7487L56.9355 3.11832H54.1757L50.4769 12.8578L46.8188 3.11832H44.0384Z" fill="white"/>
<path d="M93.2957 16.8855H95.4221V11.3525H97.5482L100.666 16.8855H103.184L99.7985 11.0021C101.533 10.2999 102.42 8.99894 102.42 7.203C102.42 5.61339 101.636 4.29202 100.335 3.67268C99.4065 3.23922 98.5394 3.11542 96.2482 3.11542C95.2789 3.11687 94.1922 3.09265 93.2957 3.32055V16.8855ZM96.2683 4.95262C98.1059 4.95262 98.56 5.01469 99.1379 5.30398C99.8193 5.63403 100.211 6.31552 100.211 7.18262C100.211 8.19416 99.7159 8.95793 98.8697 9.26777C98.3124 9.4741 97.8582 9.51537 96.3717 9.51537H95.4221V4.95279L96.2683 4.95262Z" fill="white"/>
<path d="M0.85614 3.31834V16.8853H3.35437C6.22418 16.8853 7.16696 16.7278 8.32995 16.08C10.2423 15.0144 11.3592 12.7174 11.3592 9.99225C11.3592 7.24625 10.1685 4.85726 8.2059 3.80934C7.15626 3.24873 5.97615 3.11543 3.64341 3.11543C2.84839 3.11543 1.59123 3.12125 0.85614 3.31834ZM2.98281 15.0479V4.90358H3.58151C5.83197 4.90358 6.41005 4.98756 7.23588 5.50228C8.49425 6.28711 9.15023 7.92766 9.15023 9.97162C9.15023 12.0155 8.53671 13.6243 7.38032 14.387C6.59669 14.9037 5.89387 15.0479 4.09768 15.0479H2.98281Z" fill="white"/>
</g>
</g>
<path d="M17 24.2588V26.0988H20.5971V38.0291H22.7262V26.0988H26.365V24.2588H17Z" fill="white"/>
<path d="M46.9291 24.2479V32.2913C46.9291 34.3384 47.0118 34.9171 47.3633 35.7236C48.1074 37.3362 49.8646 38.2876 52.118 38.2876C54.3714 38.2876 56.1286 37.3362 56.8729 35.7236C57.2244 34.9378 57.3072 34.3384 57.3072 32.2913V24.2479H55.1776V32.2498C55.1776 33.718 55.1363 34.1935 54.9504 34.7104C54.5781 35.7855 53.5445 36.4267 52.118 36.4267C50.8155 36.4267 49.8028 35.8891 49.3892 34.9586C49.1205 34.3796 49.0585 33.9042 49.0585 32.2498V24.2479H46.9291Z" fill="white"/>
<path d="M72.8461 28.3007C72.5593 25.5456 70.8539 23.9999 68.1448 23.9999C66.7185 23.9999 65.3746 24.5168 64.3618 25.4267C62.9763 26.7085 62.2529 28.6937 62.2529 31.1749C62.2529 35.4962 64.5889 38.2876 68.2276 38.2876C71.1221 38.2876 72.8107 36.5182 73.0558 33.2571L71.1216 33.1181C70.9148 35.3103 69.9018 36.4267 68.1654 36.4267C65.8915 36.4267 64.4856 34.4003 64.4856 31.154C64.4856 27.9079 65.8915 25.8608 68.1241 25.8608C69.6745 25.8608 70.6462 26.7294 70.977 28.4248H71.1216L72.8461 28.3007Z" fill="white"/>
<path d="M85.2142 24.2588L80.726 29.7811H79.8877V24.2588H77.761V38.0293H79.8877V31.619H80.569L85.3589 38.0293H88.1459L82.3444 30.7002L87.7125 24.2588H85.2142Z" fill="white"/>
<path d="M32.0193 38.0291H34.1458V32.496H36.272L39.3893 38.0291H41.9082L38.5222 32.1456C40.2564 31.4435 41.1442 30.1425 41.1442 28.3466C41.1442 26.757 40.36 25.4356 39.059 24.8162C38.1303 24.3828 37.2631 24.259 34.9719 24.259C34.0026 24.2604 32.9158 24.2362 32.0193 24.4641V38.0291ZM34.9921 26.0962C36.8297 26.0962 37.2837 26.1582 37.8616 26.4475C38.543 26.7776 38.9352 27.4591 38.9352 28.3262C38.9352 29.3377 38.4397 30.1015 37.5934 30.4114C37.0362 30.6177 36.5819 30.6589 35.0954 30.6589H34.1458V26.0964L34.9921 26.0962Z" fill="white"/>
<defs>
<clipPath id="clip0_2644_1279">
<rect width="105" height="16" fill="white" transform="translate(0 2)"/>
</clipPath>
</defs>
</svg>
