<svg width="101" height="24" viewBox="0 0 101 24" fill="none" xmlns="http://www.w3.org/2000/svg">
<path d="M6.9747 8.87476H1.70112C1.35273 8.87476 1.07031 9.15621 1.07031 9.50339V14.7588C1.07031 15.106 1.35273 15.3875 1.70112 15.3875H6.9747C7.32308 15.3875 7.60551 15.106 7.60551 14.7588V9.50339C7.60551 9.15621 7.32308 8.87476 6.9747 8.87476Z" fill="#767EBB"/>
<path d="M20.955 1.40754H11.0996V22.8523H20.955C27.0073 22.8523 31.9318 18.0418 31.9318 12.1293C31.9318 6.21673 27.1099 1.40625 20.955 1.40625V1.40754ZM20.955 18.4635H15.5308V5.79635H20.955C24.61 5.79635 27.4733 8.57863 27.4733 12.1305C27.4733 15.6825 24.61 18.4635 20.955 18.4635Z" fill="white"/>
<path d="M66.8507 1.00122C60.6932 1.00122 55.6831 5.99408 55.6831 12.1304C55.6831 18.2667 60.6932 23.2595 66.8507 23.2595C73.0082 23.2595 78.0183 18.2667 78.0183 12.1304C78.0183 5.99408 73.0082 1.00122 66.8507 1.00122ZM66.8507 18.8436C63.1515 18.8436 60.1416 15.8323 60.1416 12.1304C60.1416 8.42842 63.1515 5.41718 66.8507 5.41718C70.5499 5.41718 73.5598 8.42842 73.5598 12.1304C73.5598 15.8323 70.5499 18.8436 66.8507 18.8436Z" fill="white"/>
<path d="M95.7159 1.40747V15.2633L82.8103 1.40747H79.6719V22.8535H84.1031V9.01964L97.0086 22.8535H100.147V1.40747H95.7159Z" fill="white"/>
<path d="M50.5899 15.4301C49.3918 17.5398 47.1659 18.8437 44.7296 18.8437C41.0304 18.8437 38.0205 15.8324 38.0205 12.1305C38.0205 8.42849 41.0304 5.41726 44.7296 5.41726C47.1438 5.41726 49.375 6.73015 50.5652 8.845L54.4266 6.62279C52.442 3.15366 48.7377 1 44.7296 1C38.5721 1 33.562 5.99286 33.562 12.1292C33.562 18.2655 38.5721 23.2583 44.7296 23.2583C48.7494 23.2583 52.4303 21.1085 54.4188 17.6317L50.5899 15.4288V15.4301Z" fill="white"/>
</svg>
