<svg width="155" height="40" viewBox="0 0 155 40" fill="none" xmlns="http://www.w3.org/2000/svg">
<path d="M36.4599 4.31891C36.2202 4.11888 35.9108 4 35.573 4H6.3488C6.18841 4 6.03745 4.02831 5.89403 4.07737C5.35057 4.26607 4.95996 4.78122 4.95996 5.38884V34.613C4.95996 34.9489 5.08073 35.2584 5.27886 35.498C5.53361 35.8056 5.91856 36 6.3488 36H35.573C36.1429 36 36.6316 35.6565 36.8467 35.1659C36.9203 34.9961 36.9618 34.8093 36.9618 34.613V5.38884C36.9618 4.9586 36.7656 4.57365 36.4599 4.31891ZM31.8952 17.6922C31.2838 17.5242 30.6913 17.3808 30.1214 17.2997C28.9798 17.1166 27.9589 17.1978 27.1663 17.5072C27.0663 17.545 26.9701 17.5903 26.8739 17.6318L26.5851 17.779C26.4021 17.8847 26.2285 17.9941 26.0662 18.1205C25.7398 18.3696 25.4397 18.664 25.1303 19.0225C24.5642 19.683 23.9943 20.5623 23.2961 21.5511C23.2281 21.6455 23.1621 21.7417 23.0923 21.8379C22.6922 22.3871 22.2507 22.9664 21.7242 23.5344C21.1996 24.1005 20.5807 24.6571 19.8693 25.1213C19.1616 25.5893 18.3578 25.9497 17.5426 26.163C16.7312 26.3724 15.8499 26.4498 15.0272 26.3819C14.8385 26.3668 14.6498 26.3422 14.4649 26.3139C13.8497 26.2158 13.2609 26.0422 12.7175 25.8082C12.008 25.5082 11.3777 25.1063 10.8022 24.6722C10.2398 24.2156 9.72467 23.7306 9.27745 23.1872C9.04534 22.9268 8.84721 22.6324 8.64152 22.355C8.44716 22.0625 8.29997 21.9021 8.13392 21.5907C8.47169 21.6757 8.71134 21.7417 9.02836 21.8361C9.34727 21.9247 9.66051 22.0021 9.96998 22.0814C10.2795 22.1625 10.5644 22.2323 10.8682 22.2946C11.1645 22.3739 11.4135 22.4173 11.7023 22.4758C12.8609 22.6833 14.0214 22.6645 14.9045 22.4418C16.7651 21.9663 17.7766 20.8888 19.2296 18.8338C19.4126 18.581 19.6032 18.3168 19.8032 18.0432C20.392 17.2412 21.0807 16.3694 21.9903 15.558C22.6017 15.0183 23.33 14.5239 24.1301 14.1748C24.5283 13.9974 24.9453 13.8691 25.3624 13.7653C25.5718 13.7219 25.7813 13.686 25.9888 13.6521C26.2021 13.6238 26.4153 13.6049 26.6285 13.5974C26.8135 13.5898 26.9984 13.5917 27.1814 13.6011C27.8381 13.6313 28.474 13.7596 29.059 13.9634C29.8101 14.2201 30.4762 14.605 31.0687 15.0353C31.6574 15.4768 32.1764 15.9712 32.6274 16.5147C33.0802 17.0544 33.4727 17.7488 33.7935 18.3809C33.0199 18.1035 32.5764 17.8677 31.899 17.6903L31.8952 17.6922Z" fill="#949CC9"/>
<path d="M12.7176 25.8082C12.0081 25.5082 11.3778 25.1063 10.8023 24.6722C10.24 24.2156 9.7248 23.7306 9.27758 23.1872C9.04548 22.9268 8.84734 22.6324 8.64166 22.355C8.4473 22.0625 8.30011 21.9021 8.13405 21.5907C8.47183 21.6757 8.71148 21.7417 9.0285 21.8361C9.3474 21.9247 9.66065 22.0021 9.97012 22.0814C10.2796 22.1625 10.5645 22.2323 10.8683 22.2946C11.1646 22.3739 11.4137 22.4173 11.7024 22.4758C12.861 22.6833 14.0215 22.6645 14.9047 22.4418C16.7653 21.9663 17.7767 20.8888 19.2297 18.8338C19.4127 18.581 19.6033 18.3168 19.8033 18.0432C20.3921 17.2412 21.0809 16.3694 21.9904 15.558C22.6018 15.0183 23.3302 14.5239 24.1303 14.1748C24.5284 13.9974 24.9455 13.8691 25.3625 13.7653C25.572 13.7219 25.7814 13.686 25.989 13.6521C26.2022 13.6238 26.4154 13.6049 26.6287 13.5974C26.8136 13.5898 26.9985 13.5917 27.1816 13.6011L36.4638 4.31891C36.2241 4.11888 35.9147 4 35.5769 4H6.35271C6.19231 4 6.04135 4.02831 5.89794 4.07737C5.35448 4.26607 4.96387 4.78122 4.96387 5.38884V34.613C4.96387 34.9489 5.08464 35.2584 5.28277 35.498L14.4669 26.3139C13.8517 26.2158 13.263 26.0422 12.7195 25.8082H12.7176Z" fill="#767EBB"/>
<path d="M57.2181 15.9844L52.8402 14.1697C51.4268 13.6017 49.9191 12.8255 49.9191 10.7915C49.9191 8.53997 51.9344 7.7376 53.8196 7.7376C55.7047 7.7376 57.3124 8.54185 58.8881 10.1972L59.0768 10.3959L61.1242 7.76385L60.9864 7.6195C59.0089 5.54983 56.6557 4.5 53.9932 4.5C48.5755 4.5 46.1092 7.8857 46.1092 11.0314C46.1092 13.7648 47.4773 15.7838 50.1663 17.0249C51.0589 17.4673 52.6704 18.1047 53.9743 18.6071L54.1045 18.6596C55.3556 19.1526 57.686 20.0731 57.686 22.2946C57.686 24.5161 55.9104 26.0328 53.2685 26.0328C50.7815 26.0328 48.6208 24.3305 47.4264 22.7371L47.2528 22.5065L44.9619 25.101L45.0959 25.2548C46.1564 26.4677 48.6378 29.306 52.9572 29.306C57.2766 29.306 61.4959 26.8276 61.4959 22.0903C61.4959 19.4282 59.9788 17.2629 57.2162 15.9881L57.2181 15.9844Z" fill="white"/>
<path d="M72.3239 11.8579C67.3761 11.8579 63.7852 15.4967 63.7852 20.5115C63.7852 25.5263 67.1742 29.2682 72.2201 29.2682C75.2091 29.2682 77.7981 28.3571 79.5096 26.7036C79.538 26.6755 79.5587 26.6568 79.57 26.6455L79.738 26.5068L78.1019 24.2703L77.917 24.3884C77.8755 24.4146 77.8151 24.4577 77.7377 24.5121C77.1358 24.9377 75.3054 26.235 72.6315 26.235C69.767 26.235 67.8611 24.439 67.6101 21.5313H80.1776L80.2041 21.327C80.2078 21.2933 80.3097 20.4834 80.3097 19.861C80.3097 15.148 77.0244 11.8579 72.322 11.8579H72.3239ZM72.2201 14.685C75.128 14.685 76.5489 17.0602 76.6942 18.8749H67.6498C67.8441 17.1052 69.1688 14.685 72.2201 14.685Z" fill="white"/>
<path d="M90.8709 11.8579C89.2254 11.8579 87.8423 12.6678 86.9818 14.1057L87.0082 12.1672H83.2285V28.8933H87.0044V20.5471C87.0044 18.9705 87.3403 15.3017 90.4577 15.3017C91.0993 15.3017 91.6691 15.4105 92.1541 15.6242L92.607 15.6448L92.8391 12.2197L92.69 12.1541C92.6636 12.1429 92.0107 11.8598 90.8709 11.8598V11.8579Z" fill="white"/>
<path d="M103.057 24.0174L98.4169 12.3136L98.3584 12.1674H94.4014L101.359 28.7491L101.419 28.8935H104.627L111.645 12.1674H107.722L103.057 24.0174Z" fill="white"/>
<path d="M118.041 12.1674H114.265V28.8935H118.041V12.1674Z" fill="white"/>
<path d="M116.151 4.80756C114.757 4.80756 113.745 5.75428 113.745 7.05907C113.745 8.36386 114.757 9.31058 116.151 9.31058C117.546 9.31058 118.521 8.36386 118.521 7.05907C118.521 5.75428 117.525 4.80756 116.151 4.80756Z" fill="white"/>
<path d="M130.593 25.6466C130.593 25.6466 129.904 25.9971 129.014 25.9971C128.123 25.9971 127.783 25.714 127.53 25.296C127.172 24.6492 127.146 23.74 127.146 22.4296V15.302H131.074V12.1993H127.146V7.33826H123.37V12.1993H120.958V15.302H123.37V22.4971C123.37 25.1929 123.37 29.2685 127.912 29.2685C129.119 29.2685 130.131 29.0829 131.004 28.7004L131.157 28.6348L130.91 25.4834L130.595 25.6447L130.593 25.6466Z" fill="white"/>
<path d="M146.229 12.13L141.562 24.3811L136.764 12.1675L132.805 12.1281L139.556 28.3217L138.796 30.3914C138.328 31.6456 138.022 32.1574 136.879 32.1574C136.111 32.1574 135.256 31.8031 135.246 31.7993L134.994 31.6925L134.227 34.8157L134.403 34.8963C134.458 34.9207 135.747 35.5 137.601 35.5C139.662 35.5 141.015 34.3301 142.127 31.5893L150.148 12.1712L146.227 12.1319L146.229 12.13Z" fill="white"/>
</svg>
