<svg width="111" height="61" viewBox="0 0 111 61" fill="none" xmlns="http://www.w3.org/2000/svg">
<path d="M10.4785 22H6.25391V10.4336C6.25391 10.1146 6.25846 9.72266 6.26758 9.25781C6.27669 8.78385 6.29036 8.30078 6.30859 7.80859C6.32682 7.30729 6.34505 6.85612 6.36328 6.45508C6.26302 6.57357 6.05794 6.77865 5.74805 7.07031C5.44727 7.35286 5.16471 7.60807 4.90039 7.83594L2.60352 9.68164L0.566406 7.13867L7.00586 2.01172H10.4785V22ZM29.9199 12.0059C29.9199 13.6191 29.7923 15.0592 29.5371 16.3262C29.291 17.5931 28.89 18.6686 28.334 19.5527C27.7871 20.4368 27.0671 21.1113 26.1738 21.5762C25.2806 22.041 24.196 22.2734 22.9199 22.2734C21.3158 22.2734 19.9987 21.8678 18.9688 21.0566C17.9388 20.2363 17.1777 19.0605 16.6855 17.5293C16.1934 15.9889 15.9473 14.1478 15.9473 12.0059C15.9473 9.8457 16.1706 8 16.6172 6.46875C17.0729 4.92839 17.8112 3.74805 18.832 2.92773C19.8529 2.10742 21.2155 1.69727 22.9199 1.69727C24.515 1.69727 25.8275 2.10742 26.8574 2.92773C27.8965 3.73893 28.6667 4.91471 29.168 6.45508C29.6693 7.98633 29.9199 9.83659 29.9199 12.0059ZM20.1445 12.0059C20.1445 13.528 20.2266 14.7995 20.3906 15.8203C20.5638 16.832 20.8509 17.5931 21.252 18.1035C21.653 18.6139 22.209 18.8691 22.9199 18.8691C23.6217 18.8691 24.1732 18.6185 24.5742 18.1172C24.9844 17.6068 25.276 16.8457 25.4492 15.834C25.6224 14.8132 25.709 13.5371 25.709 12.0059C25.709 10.4837 25.6224 9.21224 25.4492 8.19141C25.276 7.17057 24.9844 6.40495 24.5742 5.89453C24.1732 5.375 23.6217 5.11523 22.9199 5.11523C22.209 5.11523 21.653 5.375 21.252 5.89453C20.8509 6.40495 20.5638 7.17057 20.3906 8.19141C20.2266 9.21224 20.1445 10.4837 20.1445 12.0059ZM38.6562 27.8789C38.1094 27.8789 37.6309 27.847 37.2207 27.7832C36.8014 27.7285 36.446 27.6602 36.1543 27.5781V24.0508C36.446 24.1146 36.7604 24.1738 37.0977 24.2285C37.4258 24.2923 37.7767 24.3242 38.1504 24.3242C38.6426 24.3242 39.0846 24.2285 39.4766 24.0371C39.8685 23.8548 40.1784 23.5039 40.4062 22.9844C40.6341 22.4648 40.748 21.7174 40.748 20.7422V2.01172H44.9863V20.7148C44.9863 22.4284 44.7174 23.8092 44.1797 24.8574C43.651 25.9147 42.9082 26.6803 41.9512 27.1543C41.0033 27.6374 39.9049 27.8789 38.6562 27.8789ZM55.9512 6.40039C58.002 6.40039 59.5742 6.84701 60.668 7.74023C61.7617 8.63346 62.3086 9.99154 62.3086 11.8145V22H59.3965L58.5898 19.9219H58.4805C58.043 20.4688 57.5964 20.9154 57.1406 21.2617C56.6849 21.6081 56.1608 21.8633 55.5684 22.0273C54.9759 22.1914 54.2559 22.2734 53.4082 22.2734C52.5059 22.2734 51.6947 22.1003 50.9746 21.7539C50.2637 21.4076 49.7031 20.8789 49.293 20.168C48.8828 19.4479 48.6777 18.5365 48.6777 17.4336C48.6777 15.8112 49.2474 14.6172 50.3867 13.8516C51.526 13.0768 53.235 12.6484 55.5137 12.5664L58.166 12.4844V11.8145C58.166 11.0124 57.9564 10.4245 57.5371 10.0508C57.1178 9.67708 56.5345 9.49023 55.7871 9.49023C55.0488 9.49023 54.3242 9.59505 53.6133 9.80469C52.9023 10.0143 52.1914 10.2786 51.4805 10.5977L50.0996 7.78125C50.9108 7.35286 51.8177 7.01562 52.8203 6.76953C53.832 6.52344 54.8757 6.40039 55.9512 6.40039ZM58.166 14.918L56.5527 14.9727C55.2038 15.0091 54.265 15.2507 53.7363 15.6973C53.2168 16.1439 52.957 16.7318 52.957 17.4609C52.957 18.099 53.1439 18.5547 53.5176 18.8281C53.8913 19.0924 54.3789 19.2246 54.9805 19.2246C55.8737 19.2246 56.6257 18.9603 57.2363 18.4316C57.8561 17.903 58.166 17.151 58.166 16.1758V14.918ZM70.7852 0.726562V5.06055C70.7852 5.81706 70.7578 6.53711 70.7031 7.2207C70.6576 7.9043 70.6211 8.38737 70.5938 8.66992H70.8125C71.1406 8.14128 71.528 7.71289 71.9746 7.38477C72.4303 7.05664 72.9316 6.8151 73.4785 6.66016C74.0254 6.50521 74.6133 6.42773 75.2422 6.42773C76.3451 6.42773 77.3066 6.6237 78.127 7.01562C78.9473 7.39844 79.5853 8.00456 80.041 8.83398C80.4967 9.6543 80.7246 10.7207 80.7246 12.0332V22H76.5547V13.0723C76.5547 11.9785 76.3542 11.1536 75.9531 10.5977C75.5521 10.0417 74.9323 9.76367 74.0938 9.76367C73.2552 9.76367 72.5944 9.95964 72.1113 10.3516C71.6283 10.7344 71.2865 11.304 71.0859 12.0605C70.8854 12.8079 70.7852 13.724 70.7852 14.8086V22H66.6152V0.726562H70.7852ZM93.5488 6.42773C93.7585 6.42773 94 6.44141 94.2734 6.46875C94.556 6.48698 94.7839 6.51432 94.957 6.55078L94.6426 10.4609C94.5059 10.4154 94.3099 10.3835 94.0547 10.3652C93.8086 10.3379 93.5944 10.3242 93.4121 10.3242C92.8743 10.3242 92.3503 10.3926 91.8398 10.5293C91.3385 10.666 90.8874 10.8893 90.4863 11.1992C90.0853 11.5 89.7663 11.901 89.5293 12.4023C89.3014 12.8945 89.1875 13.5007 89.1875 14.2207V22H85.0176V6.71484H88.1758L88.791 9.28516H88.9961C89.2969 8.76562 89.6706 8.29167 90.1172 7.86328C90.5729 7.42578 91.0879 7.07943 91.6621 6.82422C92.2454 6.5599 92.8743 6.42773 93.5488 6.42773ZM104.035 6.42773C105.448 6.42773 106.665 6.70117 107.686 7.24805C108.706 7.78581 109.495 8.56966 110.051 9.59961C110.607 10.6296 110.885 11.8874 110.885 13.373V15.3965H101.027C101.073 16.5723 101.424 17.4974 102.08 18.1719C102.745 18.8372 103.666 19.1699 104.842 19.1699C105.817 19.1699 106.71 19.0697 107.521 18.8691C108.333 18.6686 109.167 18.3678 110.023 17.9668V21.1934C109.267 21.5671 108.474 21.8405 107.645 22.0137C106.824 22.1868 105.826 22.2734 104.65 22.2734C103.119 22.2734 101.761 21.9909 100.576 21.4258C99.4004 20.8607 98.4753 19.9993 97.8008 18.8418C97.1354 17.6842 96.8027 16.2259 96.8027 14.4668C96.8027 12.6803 97.1035 11.1947 97.7051 10.0098C98.3158 8.81576 99.1634 7.92253 100.248 7.33008C101.333 6.72852 102.595 6.42773 104.035 6.42773ZM104.062 9.39453C103.251 9.39453 102.577 9.6543 102.039 10.1738C101.51 10.6934 101.205 11.5091 101.123 12.6211H106.975C106.965 12.0013 106.852 11.4499 106.633 10.9668C106.423 10.4837 106.104 10.1009 105.676 9.81836C105.257 9.53581 104.719 9.39453 104.062 9.39453ZM10.875 40.0117C13.4544 40.0117 15.3366 40.5677 16.5215 41.6797C17.7064 42.7826 18.2988 44.3047 18.2988 46.2461C18.2988 47.1211 18.1667 47.9596 17.9023 48.7617C17.638 49.5547 17.2051 50.2611 16.6035 50.8809C16.0111 51.5007 15.2181 51.9928 14.2246 52.3574C13.2311 52.7129 12.0052 52.8906 10.5469 52.8906H8.72852V60H4.49023V40.0117H10.875ZM10.6562 43.4844H8.72852V49.418H10.123C10.916 49.418 11.6042 49.3132 12.1875 49.1035C12.7708 48.8939 13.222 48.5658 13.541 48.1191C13.86 47.6725 14.0195 47.0983 14.0195 46.3965C14.0195 45.4121 13.7461 44.6829 13.1992 44.209C12.6523 43.7259 11.8047 43.4844 10.6562 43.4844ZM28.0059 44.4004C30.0566 44.4004 31.6289 44.847 32.7227 45.7402C33.8164 46.6335 34.3633 47.9915 34.3633 49.8145V60H31.4512L30.6445 57.9219H30.5352C30.0977 58.4688 29.651 58.9154 29.1953 59.2617C28.7396 59.6081 28.2155 59.8633 27.623 60.0273C27.0306 60.1914 26.3105 60.2734 25.4629 60.2734C24.5605 60.2734 23.7493 60.1003 23.0293 59.7539C22.3184 59.4076 21.7578 58.8789 21.3477 58.168C20.9375 57.4479 20.7324 56.5365 20.7324 55.4336C20.7324 53.8112 21.3021 52.6172 22.4414 51.8516C23.5807 51.0768 25.2897 50.6484 27.5684 50.5664L30.2207 50.4844V49.8145C30.2207 49.0124 30.0111 48.4245 29.5918 48.0508C29.1725 47.6771 28.5892 47.4902 27.8418 47.4902C27.1035 47.4902 26.3789 47.5951 25.668 47.8047C24.957 48.0143 24.2461 48.2786 23.5352 48.5977L22.1543 45.7812C22.9655 45.3529 23.8724 45.0156 24.875 44.7695C25.8867 44.5234 26.9303 44.4004 28.0059 44.4004ZM30.2207 52.918L28.6074 52.9727C27.2585 53.0091 26.3197 53.2507 25.791 53.6973C25.2715 54.1439 25.0117 54.7318 25.0117 55.4609C25.0117 56.099 25.1986 56.5547 25.5723 56.8281C25.946 57.0924 26.4336 57.2246 27.0352 57.2246C27.9284 57.2246 28.6803 56.9603 29.291 56.4316C29.9108 55.903 30.2207 55.151 30.2207 54.1758V52.918ZM47.2012 44.4277C47.4108 44.4277 47.6523 44.4414 47.9258 44.4688C48.2083 44.487 48.4362 44.5143 48.6094 44.5508L48.2949 48.4609C48.1582 48.4154 47.9622 48.3835 47.707 48.3652C47.4609 48.3379 47.2467 48.3242 47.0645 48.3242C46.5267 48.3242 46.0026 48.3926 45.4922 48.5293C44.9909 48.666 44.5397 48.8893 44.1387 49.1992C43.7376 49.5 43.4186 49.901 43.1816 50.4023C42.9538 50.8945 42.8398 51.5007 42.8398 52.2207V60H38.6699V44.7148H41.8281L42.4434 47.2852H42.6484C42.9492 46.7656 43.3229 46.2917 43.7695 45.8633C44.2253 45.4258 44.7402 45.0794 45.3145 44.8242C45.8978 44.5599 46.5267 44.4277 47.2012 44.4277ZM57.8242 56.9512C58.2799 56.9512 58.722 56.9056 59.1504 56.8145C59.5879 56.7233 60.0208 56.6094 60.4492 56.4727V59.5762C60.0026 59.7767 59.4466 59.9408 58.7812 60.0684C58.125 60.2051 57.4049 60.2734 56.6211 60.2734C55.7096 60.2734 54.8893 60.1276 54.1602 59.8359C53.4401 59.5352 52.8704 59.0202 52.4512 58.291C52.041 57.5527 51.8359 56.5273 51.8359 55.2148V47.8457H49.8398V46.082L52.1367 44.6875L53.3398 41.4609H56.0059V44.7148H60.2852V47.8457H56.0059V55.2148C56.0059 55.7982 56.1699 56.2357 56.498 56.5273C56.8353 56.8099 57.2773 56.9512 57.8242 56.9512ZM72.2344 44.4277C73.8659 44.4277 75.1784 44.8743 76.1719 45.7676C77.1654 46.6517 77.6621 48.0736 77.6621 50.0332V60H73.4922V51.0723C73.4922 49.9785 73.2917 49.1536 72.8906 48.5977C72.4987 48.0417 71.8789 47.7637 71.0312 47.7637C69.7552 47.7637 68.8848 48.1966 68.4199 49.0625C67.9551 49.9284 67.7227 51.1771 67.7227 52.8086V60H63.5527V44.7148H66.7383L67.2988 46.6699H67.5312C67.8594 46.1413 68.265 45.7129 68.748 45.3848C69.2402 45.0566 69.7826 44.8151 70.375 44.6602C70.9766 44.5052 71.5964 44.4277 72.2344 44.4277ZM88.2578 44.4277C89.6706 44.4277 90.8874 44.7012 91.9082 45.248C92.929 45.7858 93.7174 46.5697 94.2734 47.5996C94.8294 48.6296 95.1074 49.8874 95.1074 51.373V53.3965H85.25C85.2956 54.5723 85.6465 55.4974 86.3027 56.1719C86.9681 56.8372 87.8887 57.1699 89.0645 57.1699C90.0397 57.1699 90.9329 57.0697 91.7441 56.8691C92.5553 56.6686 93.3893 56.3678 94.2461 55.9668V59.1934C93.4896 59.5671 92.6966 59.8405 91.8672 60.0137C91.0469 60.1868 90.0488 60.2734 88.873 60.2734C87.3418 60.2734 85.9837 59.9909 84.7988 59.4258C83.623 58.8607 82.6979 57.9993 82.0234 56.8418C81.3581 55.6842 81.0254 54.2259 81.0254 52.4668C81.0254 50.6803 81.3262 49.1947 81.9277 48.0098C82.5384 46.8158 83.3861 45.9225 84.4707 45.3301C85.5553 44.7285 86.8177 44.4277 88.2578 44.4277ZM88.2852 47.3945C87.474 47.3945 86.7995 47.6543 86.2617 48.1738C85.7331 48.6934 85.4277 49.5091 85.3457 50.6211H91.1973C91.1882 50.0013 91.0742 49.4499 90.8555 48.9668C90.6458 48.4837 90.3268 48.1009 89.8984 47.8184C89.4792 47.5358 88.9414 47.3945 88.2852 47.3945ZM107.029 44.4277C107.239 44.4277 107.48 44.4414 107.754 44.4688C108.036 44.487 108.264 44.5143 108.438 44.5508L108.123 48.4609C107.986 48.4154 107.79 48.3835 107.535 48.3652C107.289 48.3379 107.075 48.3242 106.893 48.3242C106.355 48.3242 105.831 48.3926 105.32 48.5293C104.819 48.666 104.368 48.8893 103.967 49.1992C103.566 49.5 103.247 49.901 103.01 50.4023C102.782 50.8945 102.668 51.5007 102.668 52.2207V60H98.498V44.7148H101.656L102.271 47.2852H102.477C102.777 46.7656 103.151 46.2917 103.598 45.8633C104.053 45.4258 104.568 45.0794 105.143 44.8242C105.726 44.5599 106.355 44.4277 107.029 44.4277Z" fill="white"/>
</svg>
